<svg width="30" height="30" viewBox="0 0 30 30" fill="none" xmlns="http://www.w3.org/2000/svg">
<path d="M15 2.5C8.1075 2.5 2.5 8.1075 2.5 15C2.5 21.8925 8.1075 27.5 15 27.5C21.8925 27.5 27.5 21.8925 27.5 15C27.5 8.1075 21.8925 2.5 15 2.5ZM16.25 21.1438V22.5H13.75V21.15C10.8263 20.6913 10 18.6475 10 17.5H12.5C12.5138 17.6788 12.6988 18.75 15 18.75C16.725 18.75 17.5 18.0188 17.5 17.5C17.5 17.095 17.5 16.25 15 16.25C10.65 16.25 10 13.9 10 12.5C10 10.89 11.2863 9.27 13.75 8.85625V7.515H16.25V8.90125C18.4175 9.41375 19.25 11.2175 19.25 12.5H18L16.75 12.5225C16.7325 12.0475 16.4813 11.25 15 11.25C13.3763 11.25 12.5 11.895 12.5 12.5C12.5 12.9675 12.5 13.75 15 13.75C19.35 13.75 20 16.1 20 17.5C20 19.11 18.7138 20.73 16.25 21.1438Z" fill="white"/>
</svg>
