<svg width="44" height="43" viewBox="0 0 44 43" fill="none" xmlns="http://www.w3.org/2000/svg">
<circle cx="22.3474" cy="21.6091" r="21.3913" fill="#F4F6F8"/>
<circle cx="22.3474" cy="21.6091" r="20.8696" stroke="#181818" stroke-opacity="0.1" stroke-width="1.04348"/>
<path d="M31.2172 13.7822H14.5215C13.3737 13.7822 12.4346 14.7214 12.4346 15.8692V28.3909C12.4346 29.5387 13.3737 30.4779 14.5215 30.4779H31.2172C32.365 30.4779 33.3041 29.5387 33.3041 28.3909V15.8692C33.3041 14.7214 32.365 13.7822 31.2172 13.7822ZM30.7998 18.217L23.9754 22.4848C23.2972 22.9127 22.4415 22.9127 21.7633 22.4848L14.9389 18.217C14.8343 18.1583 14.7427 18.0789 14.6696 17.9837C14.5965 17.8886 14.5435 17.7796 14.5138 17.6633C14.4841 17.5471 14.4782 17.426 14.4966 17.3074C14.5151 17.1888 14.5574 17.0752 14.621 16.9735C14.6845 16.8717 14.7681 16.784 14.8666 16.7154C14.9651 16.6469 15.0765 16.5991 15.194 16.5749C15.3116 16.5507 15.4328 16.5505 15.5503 16.5745C15.6679 16.5985 15.7794 16.6461 15.878 16.7144L22.8694 21.0866L29.8607 16.7144C29.9593 16.6461 30.0708 16.5985 30.1884 16.5745C30.3059 16.5505 30.4271 16.5507 30.5447 16.5749C30.6622 16.5991 30.7736 16.6469 30.8721 16.7154C30.9706 16.784 31.0542 16.8717 31.1178 16.9735C31.1813 17.0752 31.2236 17.1888 31.2421 17.3074C31.2605 17.426 31.2547 17.5471 31.2249 17.6633C31.1952 17.7796 31.1422 17.8886 31.0691 17.9837C30.996 18.0789 30.9044 18.1583 30.7998 18.217Z" fill="#181818"/>
</svg>
