<svg width="30" height="30" viewBox="0 0 30 30" fill="none" xmlns="http://www.w3.org/2000/svg">
<path d="M25 3.75H5C4.33696 3.75 3.70107 4.01339 3.23223 4.48223C2.76339 4.95107 2.5 5.58696 2.5 6.25V11.25C2.5 11.913 2.76339 12.5489 3.23223 13.0178C3.70107 13.4866 4.33696 13.75 5 13.75H25C25.663 13.75 26.2989 13.4866 26.7678 13.0178C27.2366 12.5489 27.5 11.913 27.5 11.25V6.25C27.5 5.58696 27.2366 4.95107 26.7678 4.48223C26.2989 4.01339 25.663 3.75 25 3.75ZM18.75 10H16.25V7.5H18.75V10ZM23.75 10H21.25V7.5H23.75V10ZM25 16.25H5C4.33696 16.25 3.70107 16.5134 3.23223 16.9822C2.76339 17.4511 2.5 18.087 2.5 18.75V23.75C2.5 24.413 2.76339 25.0489 3.23223 25.5178C3.70107 25.9866 4.33696 26.25 5 26.25H25C25.663 26.25 26.2989 25.9866 26.7678 25.5178C27.2366 25.0489 27.5 24.413 27.5 23.75V18.75C27.5 18.087 27.2366 17.4511 26.7678 16.9822C26.2989 16.5134 25.663 16.25 25 16.25ZM18.75 22.5H16.25V20H18.75V22.5ZM23.75 22.5H21.25V20H23.75V22.5Z" fill="white"/>
</svg>
