<?xml version="1.0" encoding="UTF-8"?>
<svg version="1.1" xmlns="http://www.w3.org/2000/svg" width="2560" height="1220">
<path d="M0 0 C1.04806824 0.00323273 1.04806824 0.00323273 2.11730957 0.00653076 C20.8668077 0.09897969 37.57435382 3.28221297 55.3125 9.3125 C55.9823291 9.53776367 56.6521582 9.76302734 57.34228516 9.99511719 C79.70776674 17.70179099 99.43950003 31.99805451 116.3125 48.3125 C117.23675781 49.18519531 118.16101562 50.05789063 119.11328125 50.95703125 C159.24672693 89.72809688 179.02973127 147.0226654 185.3125 201.3125 C185.4669458 202.60220703 185.4669458 202.60220703 185.62451172 203.91796875 C194.53921284 281.99554065 182.70481716 370.93706241 133.51953125 434.3515625 C125.17702068 444.82171057 115.99942509 454.22760884 105.3125 462.3125 C104.38179687 463.04726563 103.45109375 463.78203125 102.4921875 464.5390625 C67.7100807 491.52997737 22.67007129 502.58864195 -20.9050293 497.54052734 C-49.1000683 493.70479243 -72.86643881 481.90963541 -95.6875 465.3125 C-96.0175 515.8025 -96.3475 566.2925 -96.6875 618.3125 C-100.63052335 619.62684112 -104.1850352 620.72204675 -108.1967926 621.57803345 C-109.80122223 621.92293068 -109.80122223 621.92293068 -111.43806458 622.27479553 C-112.59618149 622.52007492 -113.7542984 622.76535431 -114.94750977 623.01806641 C-116.17905792 623.28170486 -117.41060608 623.54534332 -118.67947388 623.81697083 C-122.04435176 624.53707164 -125.41015225 625.25276595 -128.77620053 625.96737337 C-131.5897152 626.56506348 -134.40278534 627.16483128 -137.2158646 627.76456678 C-143.85180989 629.17924863 -150.48852697 630.59026668 -157.12573242 631.99902344 C-163.96831534 633.45144124 -170.80953879 634.91013605 -177.65013081 636.37189925 C-183.53060562 637.6282582 -189.41191036 638.8806761 -195.29389423 640.12995088 C-198.80387145 640.87547944 -202.31351329 641.62250325 -205.82235909 642.37334061 C-209.7326635 643.20987592 -213.64466596 644.03818658 -217.55688477 644.86572266 C-218.71702591 645.11505051 -219.87716705 645.36437836 -221.07246399 645.6212616 C-222.13926392 645.84555344 -223.20606384 646.06984528 -224.30519104 646.30093384 C-225.22933084 646.49744349 -226.15347063 646.69395313 -227.10561466 646.89641762 C-229.6875 647.3125 -229.6875 647.3125 -234.6875 647.3125 C-234.6875 436.4425 -234.6875 225.5725 -234.6875 8.3125 C-194.7575 8.3125 -154.8275 8.3125 -113.6875 8.3125 C-109.1875 26.3125 -109.1875 26.3125 -107.9375 32.8125 C-107.57398438 34.68421875 -107.57398438 34.68421875 -107.203125 36.59375 C-107.03296875 37.4909375 -106.8628125 38.388125 -106.6875 39.3125 C-102.92175395 39.3125 -102.56256001 38.51168675 -99.9375 35.9375 C-73.12540636 11.41740792 -35.80011926 -0.20013819 0 0 Z M-84.6875 137.3125 C-86.24770009 138.3473758 -86.24770009 138.3473758 -87.83941936 139.40315819 C-92.65526219 143.1289311 -96.60780906 146.33015369 -97.7968998 152.52943802 C-98.37917689 157.6983198 -98.27747824 162.86061283 -98.19262695 168.05322266 C-98.20399174 170.04025204 -98.22050448 172.02725758 -98.241745 174.01420593 C-98.28346578 179.38484261 -98.25021428 184.75258078 -98.20061135 190.12305498 C-98.15891165 195.75493907 -98.17845629 201.38666328 -98.18901062 207.01864624 C-98.19710431 216.47253894 -98.15679844 225.92528618 -98.0871582 235.37890625 C-98.00728748 246.29663769 -98.00210516 257.21245666 -98.0373233 268.13038027 C-98.06969763 278.65182859 -98.05106737 289.17258752 -98.00865746 299.69398117 C-97.99141718 304.16361229 -97.99159411 308.63273673 -98.00585365 313.10237503 C-98.02020727 318.36783239 -97.98968733 323.63120422 -97.9249897 328.89626503 C-97.90834548 330.82426608 -97.90683634 332.75246841 -97.9218483 334.68048286 C-98.29487389 346.82982745 -98.29487389 346.82982745 -92.28630066 356.89266968 C-89.96354964 358.80250877 -89.96354964 358.80250877 -87.6875 360.3125 C-86.76582031 361.03824219 -85.84414062 361.76398438 -84.89453125 362.51171875 C-70.59247567 371.40092458 -55.52793336 376.41033393 -38.6875 377.3125 C-37.8521875 377.36535156 -37.016875 377.41820312 -36.15625 377.47265625 C-18.84748237 378.05809986 -4.44800714 372.27024591 9.3125 362.3125 C9.94929688 361.86390625 10.58609375 361.4153125 11.2421875 360.953125 C35.22089332 342.36675972 45.7218917 307.42889666 49.76953125 278.8046875 C54.86245046 238.46104263 51.43552291 190.12978252 26.3125 156.3125 C25.37470703 155.04599609 25.37470703 155.04599609 24.41796875 153.75390625 C11.52102395 137.04129731 -4.32771024 125.07931215 -25.6875 122.3125 C-47.00439845 121.0585648 -66.76838027 125.35326903 -84.6875 137.3125 Z " fill="#625AFF" transform="translate(1646.6875,370.6875)"/>
<path d="M0 0 C0.8357959 0.17692383 1.6715918 0.35384766 2.53271484 0.53613281 C30.0155107 6.50370784 56.7809947 18.28308262 78 37 C78.85207031 37.7425 79.70414063 38.485 80.58203125 39.25 C83.08758395 41.46689456 85.55203566 43.71975915 88 46 C89.10794922 47.02673828 89.10794922 47.02673828 90.23828125 48.07421875 C96.89669498 54.4724458 102.46902613 61.63273396 108 69 C108.62777344 69.83273437 109.25554688 70.66546875 109.90234375 71.5234375 C133.69898413 104.33480517 146.57977321 143.46958996 153.3125 183.0625 C153.43578674 183.77271301 153.55907349 184.48292603 153.68609619 185.21466064 C157.28291863 206.20311312 158.32969461 227.30906681 158.20581055 248.5769043 C158.18740468 251.82934387 158.18530322 255.08149768 158.18554688 258.33398438 C158.18063295 260.47916904 158.17480518 262.62435185 158.16796875 264.76953125 C158.16685593 265.70344193 158.1657431 266.6373526 158.16459656 267.5995636 C158.09775477 277.43596248 157.49289802 287.14203954 157 297 C68.89 297 -19.22 297 -110 297 C-105.62105326 319.98947038 -101.15317492 336.56880142 -85 353 C-84.38511719 353.62777344 -83.77023437 354.25554687 -83.13671875 354.90234375 C-62.18100535 374.69135791 -30.68565492 378.2289245 -3.25 378.25 C-2.06281876 378.25101212 -2.06281876 378.25101212 -0.85165405 378.25204468 C42.51554545 378.19379275 86.24076023 369.51997733 125.296875 350.25 C128 349 128 349 130 349 C130.18695612 363.25560397 130.32745819 377.51101766 130.41449738 391.76759624 C130.45626982 398.3874071 130.51293898 405.00639517 130.60351562 411.62573242 C130.69036325 418.01243498 130.73825862 424.39834563 130.75901794 430.78559303 C130.7738137 433.22378829 130.80270692 435.6619396 130.84584045 438.0997982 C130.90382535 441.51239431 130.91191683 444.9217083 130.90820312 448.3347168 C130.93696533 449.34532166 130.96572754 450.35592651 130.99536133 451.39715576 C130.91640503 458.09163037 130.91640503 458.09163037 128.2852478 460.69971657 C126.23535032 462.00458135 124.22392068 463.02691032 122 464 C120.79009691 464.63518449 119.58255319 465.27491374 118.37890625 465.921875 C85.29762536 482.06397203 48.63008605 491.13200543 12 494 C10.92975586 494.08540039 9.85951172 494.17080078 8.75683594 494.25878906 C-0.87718258 494.968557 -10.46737884 495.24232614 -20.125 495.25 C-20.90113647 495.25067474 -21.67727295 495.25134949 -22.47692871 495.25204468 C-79.9894193 495.17357188 -137.56543429 479.30657864 -180 439 C-180.52174805 438.51080078 -181.04349609 438.02160156 -181.58105469 437.51757812 C-218.28872659 402.90688228 -237.28954754 355.18217307 -245.3125 306.125 C-245.45977539 305.22547607 -245.60705078 304.32595215 -245.75878906 303.39916992 C-248.53928876 284.95312653 -249.37894139 266.50643992 -249.3125 247.875 C-249.31067719 246.80627655 -249.30885437 245.7375531 -249.30697632 244.63644409 C-249.25913672 227.92172517 -248.68603814 211.53027182 -246 195 C-245.82839355 193.92427734 -245.65678711 192.84855469 -245.47998047 191.74023438 C-237.47841296 143.14447672 -219.09967432 98.53470864 -187 61 C-186.16210938 60.01902344 -185.32421875 59.03804688 -184.4609375 58.02734375 C-179.96328088 52.90372461 -175.23643347 48.3544101 -170 44 C-169.12859375 43.24074219 -168.2571875 42.48148437 -167.359375 41.69921875 C-159.66779295 35.08733739 -151.57459456 29.40711373 -143 24 C-141.948125 23.32195312 -140.89625 22.64390625 -139.8125 21.9453125 C-121.93618787 11.03550436 -101.4114795 4.26121584 -81 0 C-80.16629883 -0.17644043 -79.33259766 -0.35288086 -78.47363281 -0.53466797 C-53.6956529 -5.48535742 -24.68668741 -5.35923468 0 0 Z M-86 126 C-87.01126953 126.87205078 -87.01126953 126.87205078 -88.04296875 127.76171875 C-102.97978047 141.54287773 -110.18261823 163.1541911 -112 183 C-112 186.96 -112 190.92 -112 195 C-65.8 195 -19.6 195 28 195 C28 170.41890621 22.72605738 146.38312329 5.19921875 128.171875 C4.47347656 127.45515625 3.74773438 126.7384375 3 126 C2.38769531 125.36578125 1.77539062 124.7315625 1.14453125 124.078125 C-10.77040355 112.59507483 -26.81892104 108.48622553 -42.92919922 108.65039062 C-59.30269224 109.1326348 -73.74937914 115.08148549 -86 126 Z " fill="#625AFF" transform="translate(2107,374)"/>
<path d="M0 0 C1.57447403 0.00273422 1.57447403 0.00273422 3.18075562 0.00552368 C43.22626267 0.12216809 100.3098168 2.39404454 134.6875 25.3125 C135.05664349 27.57323647 135.05664349 27.57323647 135.04826355 30.4503479 C135.05444954 32.0826107 135.05444954 32.0826107 135.0607605 33.74784851 C135.04997467 34.94690323 135.03918884 36.14595795 135.02807617 37.38134766 C135.02851425 38.63985031 135.02895233 39.89835297 135.02940369 41.19499207 C135.03026646 44.65150264 135.01259555 48.10770258 134.99168181 51.5641408 C134.9729617 55.17428556 134.97116827 58.78443699 134.96760559 62.3946228 C134.95827135 69.23344836 134.93363905 76.07213051 134.90355712 82.91089284 C134.87005588 90.69553508 134.85353789 98.48018407 134.83847082 106.26488042 C134.80709059 122.28083765 134.75430347 138.29665054 134.6875 154.3125 C130.74867051 153.04258906 127.09544449 151.5977083 123.38842773 149.74975586 C86.85314332 131.60837237 45.31665745 122.08651007 4.6875 120.3125 C3.73488281 120.26996094 2.78226563 120.22742188 1.80078125 120.18359375 C-12.3809284 119.8656182 -28.32306405 121.31618583 -39.65625 130.62890625 C-44.63578529 135.69065085 -46.01604154 141.62434235 -46.41015625 148.57421875 C-46.15625694 155.69355537 -43.23441904 162.18749207 -38.3125 167.3125 C-23.16864239 180.33979483 -2.80730429 185.94559244 15.6875 192.3125 C95.42916001 219.791045 95.42916001 219.791045 125.6875 249.3125 C126.40035156 249.96347656 127.11320312 250.61445312 127.84765625 251.28515625 C146.84826144 269.07697542 156.69595926 295.09974625 160.6875 320.3125 C160.96207031 322.04113281 160.96207031 322.04113281 161.2421875 323.8046875 C165.14800315 356.64815247 159.5678954 389.34732048 143.6875 418.3125 C143.171875 419.25867188 142.65625 420.20484375 142.125 421.1796875 C121.78799671 456.65891607 84.33979554 478.8337176 45.875 489.5 C-29.67930132 509.64825336 -108.78334147 496.92416341 -180.3125 468.3125 C-180.3125 424.7525 -180.3125 381.1925 -180.3125 336.3125 C-174.0425 339.2825 -167.7725 342.2525 -161.3125 345.3125 C-116.68634892 365.86757565 -50.18645215 393.23000798 -0.33105469 375.61230469 C7.31134314 372.59106835 14.01688502 368.95617765 17.6875 361.3125 C21.52520794 351.88863032 21.55166642 343.73512119 17.6875 334.3125 C6.07153753 311.66979054 -32.83243084 302.81782949 -54.7265625 294.8828125 C-72.63115273 288.38999938 -90.23704983 281.81530597 -107.3125 273.3125 C-108.40159668 272.77616943 -108.40159668 272.77616943 -109.51269531 272.22900391 C-124.50470184 264.78280797 -137.9245929 255.53165842 -150.3125 244.3125 C-151.18519531 243.53519531 -152.05789063 242.75789062 -152.95703125 241.95703125 C-174.74001932 221.47759207 -185.64555568 191.82621587 -186.6015625 162.3828125 C-187.28626491 124.51350234 -178.93775238 87.36030321 -153.3125 58.3125 C-152.5803125 57.45914063 -151.848125 56.60578125 -151.09375 55.7265625 C-134.38373377 36.60418477 -112.79019714 23.52804467 -89.3125 14.3125 C-88.65685059 14.0537207 -88.00120117 13.79494141 -87.32568359 13.52832031 C-77.41010827 9.711102 -67.25987189 7.25726528 -56.875 5.0625 C-55.72169189 4.8162085 -54.56838379 4.56991699 -53.38012695 4.31616211 C-35.63670963 0.73432032 -18.05855161 -0.06532125 0 0 Z " fill="#625AFF" transform="translate(481.3125,370.6875)"/>
<path d="M0 0 C0 39.27 0 78.54 0 119 C33.99 119 67.98 119 103 119 C103 157.61 103 196.22 103 236 C69.01 236 35.02 236 0 236 C0.0614873 272.60261185 0.0614873 272.60261185 0.16015625 309.20507812 C0.20866247 324.13712414 0.25311949 339.0691024 0.27099609 354.0012207 C0.28403591 364.87749178 0.31106007 375.75362467 0.35461307 386.6298179 C0.37717536 392.38435165 0.39291382 398.1387153 0.39188385 403.8932972 C0.39113415 409.31965046 0.40920904 414.74562845 0.44116783 420.17188454 C0.44962382 422.15384965 0.45144632 424.13585707 0.44580269 426.11783218 C0.40712962 441.79895768 1.5541731 455.82555721 11 469 C11.721875 470.051875 12.44375 471.10375 13.1875 472.1875 C24.41279791 483.41279791 39.34983433 486.7815539 54.75 487.25 C71.26316138 487.07818676 87.40577777 483.19807408 103 478 C103 515.29 103 552.58 103 591 C84.37444572 599.14868 84.37444572 599.14868 75.75 601.25 C74.30427612 601.61484497 74.30427612 601.61484497 72.8293457 601.98706055 C63.3185225 604.30850196 53.71990049 605.87009414 44 607 C43.23518311 607.08991211 42.47036621 607.17982422 41.68237305 607.27246094 C-0.93904238 611.92034206 -45.4672515 607.97957272 -80.57421875 581.0078125 C-86.67380673 575.95920023 -92.43299456 570.62779958 -98 565 C-98.76699219 564.23042969 -99.53398438 563.46085938 -100.32421875 562.66796875 C-114.1590499 548.14711292 -123.63240271 529.89968324 -129.3125 510.75 C-129.54291992 509.99050049 -129.77333984 509.23100098 -130.01074219 508.44848633 C-135.73156474 487.78926039 -135.43063793 466.6881973 -135.36285591 445.46241915 C-135.35182371 440.95629101 -135.35839303 436.45018095 -135.36264038 431.94404602 C-135.36824453 423.13020798 -135.35800621 414.31645781 -135.34235242 405.50263471 C-135.32464972 395.16373799 -135.32338942 384.8248574 -135.32273683 374.4859479 C-135.32105139 355.95977022 -135.30528795 337.43363175 -135.28125 318.9074707 C-135.25816056 301.09854813 -135.24384776 283.28965032 -135.24023438 265.48071289 C-135.24001161 264.39074999 -135.23978884 263.30078708 -135.23955932 262.177795 C-135.23911658 259.98066816 -135.23867455 257.78354132 -135.23823325 255.58641448 C-135.23801369 254.50146346 -135.23779412 253.41651244 -135.2375679 252.29868412 C-135.23735192 251.21576448 -135.23713593 250.13284484 -135.2369134 249.01710946 C-135.23315942 231.85092552 -135.22178956 214.68474537 -135.2094375 197.51856576 C-135.20507902 191.38808395 -135.2016028 185.25760247 -135.19882281 179.12711975 C-135.17546522 129.07629085 -134.89031213 79.04352213 -134 29 C-130.19464214 27.68097112 -126.44582069 26.57774646 -122.50848389 25.73446655 C-120.91017227 25.38956932 -120.91017227 25.38956932 -119.27957153 25.03770447 C-118.12609222 24.79242508 -116.97261292 24.54714569 -115.78417969 24.29443359 C-114.55756622 24.03079514 -113.33095276 23.76715668 -112.06716919 23.49552917 C-108.71678892 22.77619583 -105.36578521 22.05991318 -102.01443386 21.34512663 C-98.5048561 20.59595285 -94.99604205 19.84321804 -91.48712158 19.0909729 C-85.59998931 17.8294522 -79.71228745 16.57061884 -73.82421875 15.31347656 C-67.01266064 13.85913722 -60.20193746 12.40093983 -53.39166331 10.94060075 C-46.83854466 9.53546139 -40.28493038 8.1326481 -33.73105621 6.73103714 C-30.94147332 6.13443845 -28.15205234 5.53709086 -25.36275482 4.93915939 C-21.47510016 4.10594205 -17.58671597 3.27616408 -13.69824219 2.44677734 C-12.53666595 2.19744949 -11.37508972 1.94812164 -10.17831421 1.6912384 C-9.12405243 1.46694656 -8.06979065 1.24265472 -6.98358154 1.01156616 C-6.06405071 0.81505651 -5.14451988 0.61854687 -4.19712448 0.41608238 C-2 0 -2 0 0 0 Z " fill="#635BFF" transform="translate(804,261)"/>
<path d="M0 0 C1 1 1 1 1.12304783 3.1064539 C1.12212604 4.04207377 1.12120424 4.97769365 1.12025452 5.94166565 C1.12231651 7.54662399 1.12231651 7.54662399 1.12442017 9.18400574 C1.12082489 10.36795425 1.11722961 11.55190277 1.11352539 12.77172852 C1.11367142 14.010578 1.11381744 15.24942749 1.1139679 16.52581787 C1.11338892 19.93269833 1.10835959 23.33951884 1.10139394 26.74638867 C1.09515993 30.30316826 1.09455656 33.85994858 1.09336853 37.41673279 C1.09025535 44.15636582 1.08204215 50.89598271 1.07201904 57.63560861 C1.06085748 65.30658398 1.05534735 72.97756011 1.05032361 80.64854157 C1.03985952 96.43237041 1.02226035 112.21618313 1 128 C0.03868164 127.79141357 -0.92263672 127.58282715 -1.91308594 127.36791992 C-3.17411133 127.09568604 -4.43513672 126.82345215 -5.734375 126.54296875 C-6.98444336 126.27250732 -8.23451172 126.0020459 -9.52246094 125.72338867 C-33.46709557 120.74248777 -60.9169936 123.95162338 -81.703125 137.37890625 C-85.97870676 140.39653624 -90.15304292 143.44587099 -94 147 C-94.65024139 147.571911 -95.30048279 148.143822 -95.97042847 148.73306364 C-101.47670849 154.10658546 -102.92989726 158.02994081 -103.05882359 165.66799408 C-103.0394118 166.90633671 -103.02000002 168.14467933 -103 169.42054749 C-103.00763028 170.76889862 -103.01876858 172.11723364 -103.03308773 173.46553034 C-103.06217529 177.15129743 -103.04181946 180.83535434 -103.01306796 184.52106225 C-102.9907816 188.50262253 -103.01479914 192.48394149 -103.03309631 196.46548462 C-103.05847524 203.35724303 -103.05473852 210.24848775 -103.03103638 217.14024544 C-102.99681012 227.1043714 -103.00678892 237.06807065 -103.02743971 247.03221612 C-103.05975142 263.19952514 -103.05648099 279.36662235 -103.03076172 295.53393555 C-103.00585926 311.23579974 -102.99775953 326.93752486 -103.01220703 342.6394043 C-103.01309224 343.60781335 -103.01397745 344.5762224 -103.01488948 345.57397718 C-103.01943395 350.43236492 -103.02430822 355.29075227 -103.02934647 360.14913952 C-103.07069503 400.43288775 -103.04769857 440.71623947 -103 481 C-148.21 481 -193.42 481 -240 481 C-240 322.6 -240 164.2 -240 1 C-200.73 1 -161.46 1 -121 1 C-118.36 12.88 -115.72 24.76 -113 37 C-112.34 37 -111.68 37 -111 37 C-109.72123357 35.31451105 -109.72123357 35.31451105 -108.4375 33.125 C-96.34573422 14.49082955 -77.65144902 1.7890283 -56 -3 C-37.59100081 -6.3019389 -17.90161706 -5.85566913 0 0 Z " fill="#625AFF" transform="translate(1190,379)"/>
<path d="M0 0 C45.54 0 91.08 0 138 0 C138 158.4 138 316.8 138 480 C92.46 480 46.92 480 0 480 C0 321.6 0 163.2 0 0 Z " fill="#635AFF" transform="translate(1224,380)"/>
<path d="M0 0 C0 36.96 0 73.92 0 112 C-40.66101556 121.29394641 -40.66101556 121.29394641 -59.6796875 125.375 C-61.81488108 125.83434072 -63.95006349 126.29373332 -66.0852356 126.75317383 C-70.46841468 127.69567562 -74.85199304 128.63629276 -79.23583984 129.57568359 C-84.84832642 130.77871465 -90.45927734 131.98876234 -96.06992912 133.20031738 C-100.43741106 134.14228119 -104.80587128 135.07964204 -109.1746254 136.01568604 C-111.24742345 136.46057647 -113.31986575 136.90712791 -115.39193344 137.35540771 C-118.25750782 137.97485969 -121.12439076 138.58785149 -123.99169922 139.19921875 C-124.83510864 139.3830159 -125.67851807 139.56681305 -126.54748535 139.75617981 C-127.71880508 140.00388374 -127.71880508 140.00388374 -128.91378784 140.2565918 C-129.58640593 140.40106247 -130.25902401 140.54553314 -130.95202446 140.69438171 C-133 141 -133 141 -138 141 C-138 104.04 -138 67.08 -138 29 C-128.47321478 26.61830369 -119.01145399 24.27615506 -109.41503906 22.25097656 C-108.26820648 22.00655319 -107.1213739 21.76212982 -105.93978882 21.51029968 C-102.21568801 20.7174553 -98.49071111 19.92882601 -94.765625 19.140625 C-92.81419392 18.72642799 -90.86276322 18.3122291 -88.91137671 17.89782214 C-82.8073637 16.60159087 -76.70272047 15.30836031 -70.59765625 14.01708984 C-64.31172976 12.68751014 -58.02691304 11.35277598 -51.74260163 10.01558518 C-46.31952727 8.86183683 -40.89579392 7.71122538 -35.47151732 6.56314254 C-32.24295825 5.87976615 -29.01473669 5.19486524 -25.78699493 4.50763702 C-22.20287932 3.74503118 -18.61771485 2.98756706 -15.03222656 2.23144531 C-13.43642258 1.89021889 -13.43642258 1.89021889 -11.80838013 1.542099 C-10.83313385 1.33752579 -9.85788757 1.13295258 -8.85308838 0.92218018 C-8.00738407 0.74301685 -7.16167976 0.56385353 -6.29034805 0.37926102 C-4 0 -4 0 0 0 Z " fill="#625AFF" transform="translate(1362,198)"/>
</svg>
