<svg width="44" height="43" viewBox="0 0 44 43" fill="none" xmlns="http://www.w3.org/2000/svg">
<circle cx="21.9558" cy="21.6091" r="20.8696" fill="#FF3144" fill-opacity="0.1" stroke="#FF3144" stroke-width="1.04348"/>
<path d="M16.2173 29.4349C16.2173 30.5827 17.1564 31.5219 18.3043 31.5219H26.6521C27.7999 31.5219 28.739 30.5827 28.739 29.4349V19.0001C28.739 17.8523 27.7999 16.9132 26.6521 16.9132H18.3043C17.1564 16.9132 16.2173 17.8523 16.2173 19.0001V29.4349ZM28.739 13.7827H26.1304L25.3895 13.0419C25.2017 12.854 24.9304 12.7393 24.659 12.7393H20.2973C20.026 12.7393 19.7547 12.854 19.5669 13.0419L18.826 13.7827H16.2173C15.6434 13.7827 15.1738 14.2523 15.1738 14.8262C15.1738 15.4001 15.6434 15.8697 16.2173 15.8697H28.739C29.313 15.8697 29.7825 15.4001 29.7825 14.8262C29.7825 14.2523 29.313 13.7827 28.739 13.7827Z" fill="#ED192D"/>
</svg>
