<svg width="30" height="30" viewBox="0 0 30 30" fill="none" xmlns="http://www.w3.org/2000/svg">
<path d="M5 13.7503H12.5C12.8315 13.7503 13.1495 13.6186 13.3839 13.3842C13.6183 13.1498 13.75 12.8319 13.75 12.5003V5.00033C13.75 4.66881 13.6183 4.35087 13.3839 4.11645C13.1495 3.88203 12.8315 3.75033 12.5 3.75033H5C4.66848 3.75033 4.35054 3.88203 4.11612 4.11645C3.8817 4.35087 3.75 4.66881 3.75 5.00033V12.5003C3.75 12.8319 3.8817 13.1498 4.11612 13.3842C4.35054 13.6186 4.66848 13.7503 5 13.7503ZM5 26.2503H12.5C12.8315 26.2503 13.1495 26.1186 13.3839 25.8842C13.6183 25.6498 13.75 25.3319 13.75 25.0003V17.5003C13.75 17.1688 13.6183 16.8509 13.3839 16.6164C13.1495 16.382 12.8315 16.2503 12.5 16.2503H5C4.66848 16.2503 4.35054 16.382 4.11612 16.6164C3.8817 16.8509 3.75 17.1688 3.75 17.5003V25.0003C3.75 25.3319 3.8817 25.6498 4.11612 25.8842C4.35054 26.1186 4.66848 26.2503 5 26.2503ZM17.5 26.2503H25C25.3315 26.2503 25.6495 26.1186 25.8839 25.8842C26.1183 25.6498 26.25 25.3319 26.25 25.0003V17.5003C26.25 17.1688 26.1183 16.8509 25.8839 16.6164C25.6495 16.382 25.3315 16.2503 25 16.2503H17.5C17.1685 16.2503 16.8505 16.382 16.6161 16.6164C16.3817 16.8509 16.25 17.1688 16.25 17.5003V25.0003C16.25 25.3319 16.3817 25.6498 16.6161 25.8842C16.8505 26.1186 17.1685 26.2503 17.5 26.2503ZM26.6162 7.86658L22.1338 3.38408C22.0178 3.2679 21.88 3.17573 21.7284 3.11284C21.5767 3.04995 21.4142 3.01758 21.25 3.01758C21.0858 3.01758 20.9233 3.04995 20.7716 3.11284C20.62 3.17573 20.4822 3.2679 20.3662 3.38408L15.8837 7.86658C15.7676 7.98256 15.6754 8.12032 15.6125 8.27196C15.5496 8.42361 15.5172 8.58616 15.5172 8.75033C15.5172 8.9145 15.5496 9.07705 15.6125 9.2287C15.6754 9.38034 15.7676 9.51809 15.8837 9.63408L20.3662 14.1166C20.4822 14.2328 20.62 14.3249 20.7716 14.3878C20.9233 14.4507 21.0858 14.4831 21.25 14.4831C21.4142 14.4831 21.5767 14.4507 21.7284 14.3878C21.88 14.3249 22.0178 14.2328 22.1338 14.1166L26.6162 9.63408C26.7324 9.51809 26.8246 9.38034 26.8875 9.2287C26.9504 9.07705 26.9827 8.9145 26.9827 8.75033C26.9827 8.58616 26.9504 8.42361 26.8875 8.27196C26.8246 8.12032 26.7324 7.98256 26.6162 7.86658Z" fill="white"/>
</svg>
