<svg width="43" height="43" viewBox="0 0 43 43" fill="none" xmlns="http://www.w3.org/2000/svg">
<circle cx="21.3913" cy="21.3913" r="20.3478" fill="#2FB851" fill-opacity="0.25" stroke="#2FB851" stroke-width="2.08696"/>
<path d="M29.6419 15.852L22.0012 12.0186C21.8682 11.9515 21.7214 11.9164 21.5725 11.916C21.4236 11.9157 21.2767 11.9502 21.1434 12.0167L13.4509 15.85C13.1663 15.9938 12.9698 16.2688 12.9296 16.5851C12.9171 16.678 11.8323 25.9202 21.1147 30.9678C21.2574 31.0456 21.4176 31.0856 21.5801 31.0841C21.7427 31.0826 21.9021 31.0396 22.0433 30.9591C30.9625 25.9193 30.2026 16.9933 30.1662 16.6158C30.1505 16.4545 30.0941 16.2999 30.0025 16.1663C29.9108 16.0327 29.7868 15.9246 29.6419 15.852Z" fill="#2FB851"/>
</svg>
